<svg fill="none" height="31" viewBox="0 0 24 24" width="31" xmlns="http://www.w3.org/2000/svg"><g stroke="#1c274c" stroke-linecap="round" stroke-width="1.5"><path d="m15 13h-6"/><path d="m12 10v6"/><path d="m19 10h-1"/><path d="m2 13.3636c0-3.0642 0-4.59639.74902-5.697.32426-.47646.74093-.88556 1.22622-1.20392.72031-.47255 1.62209-.64145 3.00276-.70182.65885 0 1.22612-.49018 1.35533-1.1245.19382-.95147 1.04472-1.63636 2.03297-1.63636h3.2674c.9882 0 1.8391.68489 2.033 1.63636.1292.63432.6964 1.1245 1.3553 1.1245 1.3807.06037 2.2824.22927 3.0028.70182.4852.31836.9019.72746 1.2262 1.20392.749 1.10061.749 2.6328.749 5.697 0 3.0643 0 4.5965-.749 5.6971-.3243.4764-.741.8855-1.2262 1.2039-1.121.7354-2.6815.7354-5.8026.7354h-4.44442c-3.12103 0-4.68154 0-5.80254-.7354-.48529-.3184-.90196-.7275-1.22622-1.2039-.21156-.3109-.36336-.6562-.47229-1.0607"/></g></svg>