//logo azul
<svg width="20" height="20" viewBox="0 0 20 20" fill="none" xmlns="http://www.w3.org/2000/svg">
<path d="M8.00001 6.22981C8.60769 6.08484 9.27363 6 10 6C12.7879 6 14.6854 7.24978 15.8167 8.35217C16.3834 8.90426 16.6667 9.18031 16.6667 10C16.6667 10.8197 16.3834 11.0957 15.8167 11.6478C14.6854 12.7502 12.7879 14 10 14C7.21209 14 5.31465 12.7502 4.18327 11.6478C3.61665 11.0957 3.33334 10.8197 3.33334 10C3.33334 9.18031 3.61665 8.90426 4.18327 8.35217C4.50409 8.03957 4.8865 7.71513 5.33334 7.41069" stroke="#3D1DF3" stroke-linecap="round"/>
<path d="M12 10C12 11.1046 11.1046 12 10 12C8.89543 12 8 11.1046 8 10C8 8.89543 8.89543 8 10 8C11.1046 8 12 8.89543 12 10Z" stroke="#3D1DF3"/>
<line x1="1.67861" y1="16.4727" x2="16.9995" y2="3.61694" stroke="#3D1DF3"/>
</svg>

//logo blanco
<svg width="20" height="20" viewBox="0 0 20 20" fill="none" xmlns="http://www.w3.org/2000/svg">
<path d="M7.99998 6.22987C8.60766 6.0849 9.2736 6.00006 9.99998 6.00006C12.7879 6.00006 14.6853 7.24984 15.8167 8.35223C16.3833 8.90432 16.6666 9.18037 16.6666 10.0001C16.6666 10.8197 16.3833 11.0958 15.8167 11.6479C14.6853 12.7503 12.7879 14.0001 9.99998 14.0001C7.21206 14.0001 5.31462 12.7503 4.18324 11.6479C3.61662 11.0958 3.33331 10.8197 3.33331 10.0001C3.33331 9.18037 3.61662 8.90432 4.18324 8.35223C4.50406 8.03963 4.88647 7.71519 5.33331 7.41075" stroke="white" stroke-linecap="round"/>
<path d="M12 10.0001C12 11.1046 11.1046 12.0001 10 12.0001C8.89543 12.0001 8 11.1046 8 10.0001C8 8.89549 8.89543 8.00006 10 8.00006C11.1046 8.00006 12 8.89549 12 10.0001Z" stroke="white"/>
<line x1="1.67861" y1="16.4728" x2="16.9995" y2="3.617" stroke="white"/>
</svg>
